# xmcd CD database file generated by OrangeCD 4.3
#
# Track frame offsets:
#	150
#	11571
#	22288
#	34010
#	45827
#	56110
#	66483
#	77568
#	87947
#	99002
#	111005
#	121454
#
# Disc length: 1767 seconds
#
# Revision: 1
# Processed by: cddbd v1.4PL0 Copyright (c) Steve Scherf et al.
# Submitted via: OrangeCD 4.3
#
DISCID=9206e50c
DTITLE=Patsy Cline - Crazy Dreams
DYEAR=2002
DGENRE=Country
TTITLE0=Crazy Dreams
TTITLE1=I Can See An Angel
TTITLE2=Walkin' After Midnight
TTITLE3=That's How Much I love You
TTITLE4=Too Many Secrets
TTITLE5=He Will Do For Me
TTITLE6=Let The Teardrops Fall
TTITLE7=Three Cigarettes In My Ashtray
TTITLE8=Stop The World And Let Me Off
TTITLE9=Today, Tomorrow And Forever
TTITLE10=Lovesick Blues
TTITLE11=Cry Not For Me
EXTD=
EXTT0=
EXTT1=
EXTT2=
EXTT3=
EXTT4=
EXTT5=
EXTT6=
EXTT7=
EXTT8=
EXTT9=
EXTT10=
EXTT11=
PLAYORDER=
